<?xml version="1.0" encoding="UTF-8"?>
<!DOCTYPE svg PUBLIC "-//W3C//DTD SVG 1.1//EN" "http://www.w3.org/Graphics/SVG/1.1/DTD/svg11.dtd">
<svg version="1.1" xmlns="http://www.w3.org/2000/svg" xmlns:xlink="http://www.w3.org/1999/xlink" x="0" y="0" width="60" height="60" viewBox="0, 0, 60, 60">
  <g id="Layer_1">
    <path d="M30,59.508 C13.703,59.508 0.492,46.297 0.492,30 C0.492,13.703 13.703,0.492 30,0.492 C46.297,0.492 59.508,13.703 59.508,30 C59.508,46.297 46.297,59.508 30,59.508 z" fill="#70AA4E"/>
    <path d="M30,0 C46.568,0 60,13.431 60,30 C60,46.568 46.568,60 30,60 C13.431,60 0,46.568 0,30 C0,13.431 13.431,0 30,0 z M30,0.983 C13.975,0.984 0.984,13.975 0.984,30 C0.984,46.025 13.975,59.016 30,59.016 C46.025,59.016 59.016,46.025 59.016,30 C59.016,13.975 46.025,0.984 30,0.983 z" fill="#5B8841"/>
    <path d="M33.45,12 C34.444,12 35.25,12.806 35.25,13.8 L35.25,24.75 L46.2,24.75 C47.194,24.75 48,25.556 48,26.55 L48,33.45 C48,34.444 47.194,35.25 46.2,35.25 L35.25,35.25 L35.25,46.2 C35.25,47.194 34.444,48 33.45,48 L26.55,48 C25.556,48 24.75,47.194 24.75,46.2 L24.75,35.25 L13.8,35.25 C12.806,35.25 12,34.444 12,33.45 L12,26.55 C12,25.556 12.806,24.75 13.8,24.75 L24.75,24.75 L24.75,13.8 C24.75,12.806 25.556,12 26.55,12 L33.45,12 z" fill="#FFFFFF"/>
  </g>
</svg>
