<?xml version="1.0" encoding="UTF-8"?>
<!DOCTYPE svg PUBLIC "-//W3C//DTD SVG 1.1//EN" "http://www.w3.org/Graphics/SVG/1.1/DTD/svg11.dtd">
<svg version="1.1" xmlns="http://www.w3.org/2000/svg" xmlns:xlink="http://www.w3.org/1999/xlink" x="0" y="0" width="60" height="60" viewBox="0, 0, 60, 60">
  <g id="Layer_1">
    <path d="M30,59.508 C13.703,59.508 0.492,46.297 0.492,30 C0.492,13.703 13.703,0.492 30,0.492 C46.297,0.492 59.508,13.703 59.508,30 C59.508,46.297 46.297,59.508 30,59.508 z" fill="#70AA4E"/>
    <path d="M30,0 C46.568,0 60,13.431 60,30 C60,46.568 46.568,60 30,60 C13.431,60 0,46.568 0,30 C0,13.431 13.431,0 30,0 z M30,0.983 C13.975,0.984 0.984,13.975 0.984,30 C0.984,46.025 13.975,59.016 30,59.016 C46.025,59.016 59.016,46.025 59.016,30 C59.016,13.975 46.025,0.984 30,0.983 z" fill="#5B8841"/>
    <path d="M16.5,34.928 C14.015,34.928 12,32.913 12,30.428 C12,27.943 14.015,25.928 16.5,25.928 C18.985,25.928 21,27.943 21,30.428 C21,32.913 18.985,34.928 16.5,34.928 z" fill="#FFFFFF"/>
    <path d="M30.057,34.928 C27.602,34.928 25.613,32.913 25.613,30.428 C25.613,27.943 27.602,25.928 30.057,25.928 C32.511,25.928 34.5,27.943 34.5,30.428 C34.5,32.913 32.511,34.928 30.057,34.928 z" fill="#FFFFFF"/>
    <path d="M43.5,34.928 C41.015,34.928 39,32.913 39,30.428 C39,27.943 41.015,25.928 43.5,25.928 C45.985,25.928 48,27.943 48,30.428 C48,32.913 45.985,34.928 43.5,34.928 z" fill="#FFFFFF"/>
  </g>
</svg>
