<?xml version="1.0" encoding="UTF-8"?>
<!DOCTYPE svg PUBLIC "-//W3C//DTD SVG 1.1//EN" "http://www.w3.org/Graphics/SVG/1.1/DTD/svg11.dtd">
<svg version="1.1" xmlns="http://www.w3.org/2000/svg" xmlns:xlink="http://www.w3.org/1999/xlink" x="0" y="0" width="60" height="60" viewBox="0, 0, 60, 60">
  <g id="Layer_1">
    <path d="M30,59.508 C13.703,59.508 0.492,46.297 0.492,30 C0.492,13.703 13.703,0.492 30,0.492 C46.297,0.492 59.508,13.703 59.508,30 C59.508,46.297 46.297,59.508 30,59.508 z" fill="#C94B4D"/>
    <path d="M30,0 C46.568,0 60,13.431 60,30 C60,46.568 46.568,60 30,60 C13.431,60 0,46.568 0,30 C0,13.431 13.431,0 30,0 z M30,0.983 C13.975,0.984 0.984,13.975 0.984,30 C0.984,46.025 13.975,59.016 30,59.016 C46.025,59.016 59.016,46.025 59.016,30 C59.016,13.975 46.025,0.984 30,0.983 z" fill="#99393B"/>
    <path d="M40.341,15.219 L44.782,19.66 L34.441,30 L44.782,40.341 L40.341,44.782 L30,34.441 L19.659,44.782 L15.218,40.341 L25.559,30 L15.218,19.66 L19.659,15.219 L30,25.559 L40.341,15.219 z" fill="#FFFFFF"/>
  </g>
</svg>
