<?xml version="1.0" encoding="UTF-8"?>
<!DOCTYPE svg PUBLIC "-//W3C//DTD SVG 1.1//EN" "http://www.w3.org/Graphics/SVG/1.1/DTD/svg11.dtd">
<svg version="1.1" xmlns="http://www.w3.org/2000/svg" xmlns:xlink="http://www.w3.org/1999/xlink" x="0" y="0" width="60" height="60" viewBox="0, 0, 60, 60">
  <g id="Layer_1">
    <path d="M30,59.508 C13.703,59.508 0.492,46.297 0.492,30 C0.492,13.703 13.703,0.492 30,0.492 C46.297,0.492 59.508,13.703 59.508,30 C59.508,46.297 46.297,59.508 30,59.508 z" fill="#3886C9"/>
    <path d="M30,0 C46.569,0 60,13.431 60,30 C60,46.568 46.569,60 30,60 C13.432,60 0,46.568 0,30 C0,13.431 13.432,0 30,0 z M30,0.983 C13.975,0.984 0.984,13.975 0.984,30 C0.984,46.025 13.975,59.016 30,59.016 C46.025,59.016 59.016,46.025 59.016,30 C59.016,13.975 46.025,0.984 30,0.983 z" fill="#22659F"/>
    <path d="M32.265,12.063 C32.265,12.063 34.566,17.449 34.566,17.449 C34.566,17.449 35.84,18.16 35.84,18.16 C35.84,18.16 41.275,15.809 41.275,15.809 C41.275,15.809 44.654,19.139 44.654,19.139 C44.654,19.139 42.402,24.697 42.402,24.697 C42.402,24.697 42.965,25.872 42.965,25.872 C42.965,25.872 48.351,28.198 48.351,28.198 C48.351,28.198 48.4,32.777 48.4,32.777 C48.4,32.777 42.989,35.128 42.989,35.128 C42.989,35.128 42.328,36.352 42.328,36.352 C42.328,36.352 44.63,41.861 44.63,41.861 C44.63,41.861 41.398,45.215 41.373,45.215 C41.349,45.215 35.962,42.963 35.962,42.963 C35.962,42.963 34.615,43.501 34.615,43.501 C34.615,43.501 32.314,48.888 32.314,48.888 C32.314,48.888 27.711,48.937 27.711,48.937 C27.711,48.937 25.36,43.551 25.36,43.551 C25.36,43.551 24.136,42.889 24.136,42.889 C24.136,42.889 18.7,45.215 18.7,45.215 C18.7,45.215 15.346,41.861 15.346,41.861 C15.346,41.861 17.647,36.425 17.647,36.425 C17.647,36.425 17.109,35.275 17.109,35.275 C17.109,35.275 11.599,32.875 11.599,32.875 C11.599,32.875 11.599,28.272 11.599,28.272 C11.599,28.272 17.06,25.921 17.06,25.921 C17.06,25.921 17.647,24.844 17.647,24.844 C17.647,24.844 15.297,19.163 15.297,19.163 C15.297,19.163 18.602,15.858 18.602,15.858 C18.602,15.858 24.062,18.16 24.062,18.16 C24.062,18.16 25.385,17.572 25.385,17.572 C25.385,17.572 27.564,12.112 27.564,12.087 C27.564,12.087 32.265,12.063 32.265,12.063 z M29.983,23.645 C26.195,23.645 23.124,26.716 23.124,30.504 C23.124,34.292 26.195,37.362 29.983,37.362 C33.771,37.362 36.841,34.292 36.841,30.504 C36.841,26.716 33.771,23.645 29.983,23.645 z" fill="#FFFFFF"/>
  </g>
</svg>
