<?xml version="1.0" encoding="UTF-8"?>
<!DOCTYPE svg PUBLIC "-//W3C//DTD SVG 1.1//EN" "http://www.w3.org/Graphics/SVG/1.1/DTD/svg11.dtd">
<svg version="1.1" xmlns="http://www.w3.org/2000/svg" xmlns:xlink="http://www.w3.org/1999/xlink" x="0" y="0" width="144" height="144" viewBox="0, 0, 144, 144">
  <g id="Alternate">
    <path d="M71.742,120 L70.951,119.997 C68.632,119.052 69.527,119.642 68.114,118.488 C66.765,117.139 65.416,115.79 64.068,114.442 C62.561,112.935 61.054,111.428 59.547,109.921 C53.926,104.3 48.305,98.679 42.684,93.057 C38.916,89.29 38.916,89.29 37.974,88.348 C34.512,84.886 36.964,78.965 41.861,78.965 L56.424,78.965 L56.424,29.497 C56.424,26.461 58.885,24 61.92,24 L82.081,24 C85.116,24 87.577,26.461 87.577,29.497 L87.577,78.965 L102.14,78.965 C107.037,78.965 109.489,84.886 106.026,88.348 C105.084,89.29 105.084,89.29 101.317,93.057 C98.551,95.824 99.837,94.538 97.459,96.915 C91.839,102.536 86.217,108.157 80.596,113.778 C76.829,117.546 76.829,117.546 75.887,118.488 C74.611,119.765 73.457,119.941 71.742,120 z" fill="#FFFFFF"/>
  </g>
</svg>
