<?xml version="1.0" encoding="UTF-8"?>
<!DOCTYPE svg PUBLIC "-//W3C//DTD SVG 1.1//EN" "http://www.w3.org/Graphics/SVG/1.1/DTD/svg11.dtd">
<svg version="1.1" xmlns="http://www.w3.org/2000/svg" xmlns:xlink="http://www.w3.org/1999/xlink" x="0" y="0" width="144" height="144" viewBox="0, 0, 144, 144">
  <g id="Original">
    <path d="M72,144 C32.235,144 0,111.764 0,72 C0,32.236 32.235,0 72,0 C111.764,0 144,32.236 144,72 C144,111.764 111.764,144 72,144 z" fill="#F5CA3F"/>
    <path d="M109.77,89.405 C112.261,89.405 114.28,91.424 114.28,93.914 C114.28,111.861 95.094,125.733 72,125.733 C48.906,125.733 29.72,111.861 29.72,93.914 C29.72,91.424 31.739,89.405 34.23,89.405 C34.23,89.405 47.946,86.642 71.901,86.351 C95.856,86.06 109.77,89.405 109.77,89.405 z" fill="#333333"/>
    <path d="M71.324,101.104 C84.005,101.161 96.27,103.186 106.149,112.81 C96.014,122.531 84.054,125.716 71.398,125.751 C58.798,125.715 46.628,121.824 37.218,112.11 C46.729,102.38 59.17,101.702 71.324,101.104 z" fill="#F55065"/>
    <path d="M101.479,36.647 C103.615,37.027 104.944,38.175 106.048,39.945 C107.509,42.919 106.283,46.515 103.309,47.976 C101.169,49.028 99.032,50.694 96.99,52.821 L95.602,54.399 L96.33,54.764 C97.613,55.405 96.912,55.055 98.434,55.816 C100.071,56.635 101.709,57.453 103.346,58.271 C106.31,59.753 107.511,63.358 106.029,66.321 C104.547,69.285 100.943,70.487 97.979,69.005 C97.541,68.785 97.541,68.785 95.787,67.908 C93.595,66.812 93.595,66.812 90.964,65.497 C88.333,64.181 88.333,64.181 86.141,63.085 C84.387,62.208 84.387,62.208 83.948,61.989 C80.892,60.461 79.727,56.693 81.387,53.707 C81.754,53.048 82.388,52.015 83.278,50.727 C84.737,48.613 86.423,46.501 88.333,44.511 C91.276,41.446 94.491,38.939 98.016,37.206 C99.883,36.512 98.751,36.806 101.479,36.647 z" fill="#333333"/>
    <path d="M43.014,36.599 C45.72,36.983 44.617,36.597 46.419,37.443 C49.278,39.154 52.073,41.471 54.815,44.246 C56.751,46.207 58.554,48.286 60.187,50.366 C61.175,51.624 61.901,52.621 62.32,53.233 C64.375,56.236 63.306,60.362 60.052,61.989 C59.613,62.208 59.613,62.208 57.859,63.085 C55.667,64.181 55.667,64.181 53.036,65.496 C51.671,66.179 50.307,66.861 48.942,67.544 C46.208,68.91 47.182,68.423 46.021,69.004 C43.057,70.486 39.453,69.285 37.971,66.321 C36.489,63.357 37.69,59.753 40.654,58.271 C41.122,58.037 40.841,58.177 41.498,57.849 C43.555,56.821 45.612,55.792 47.67,54.763 L48.04,54.578 L46.278,52.68 C44.19,50.566 42.14,48.867 40.256,47.739 C37.412,46.037 36.487,42.352 38.189,39.509 C39.518,37.399 40.762,37.165 43.014,36.599 z" fill="#333333"/>
  </g>
</svg>
