<?xml version="1.0" encoding="UTF-8"?>
<!DOCTYPE svg PUBLIC "-//W3C//DTD SVG 1.1//EN" "http://www.w3.org/Graphics/SVG/1.1/DTD/svg11.dtd">
<svg version="1.1" xmlns="http://www.w3.org/2000/svg" xmlns:xlink="http://www.w3.org/1999/xlink" x="0" y="0" width="144" height="144" viewBox="0, 0, 144, 144">
  <defs>
    <radialGradient id="Gradient_1" gradientUnits="userSpaceOnUse" cx="1515.567" cy="160.738" r="20.403" gradientTransform="matrix(1, 0, 0, 1, -1404, -72)">
      <stop offset="0" stop-color="#FF0000" stop-opacity="0.1"/>
      <stop offset="1" stop-color="#FF0000" stop-opacity="0"/>
    </radialGradient>
    <radialGradient id="Gradient_2" gradientUnits="userSpaceOnUse" cx="1436.433" cy="160.738" r="20.403" gradientTransform="matrix(1, 0, 0, 1, -1404, -72)">
      <stop offset="0" stop-color="#FF0000" stop-opacity="0.1"/>
      <stop offset="1" stop-color="#FF0000" stop-opacity="0"/>
    </radialGradient>
  </defs>
  <g id="V2">
    <path d="M72,144 C32.235,144 0,111.764 0,72 C0,32.235 32.235,0 72,0 C111.765,0 144,32.235 144,72 C144,111.764 111.765,144 72,144 z" fill="#F5CA3F"/>
    <g>
      <path d="M119.626,18.565 C135.174,31.719 142.874,51.988 143.378,71.922 C143.378,111.601 111.212,143.767 71.533,143.767 C51.198,143.521 30.567,135.031 17.441,119.124 C30.825,131.177 47.664,137.159 65.533,137.611 C105.212,137.611 137.378,105.445 137.378,65.767 C137.337,47.675 131.022,32.374 119.626,18.565 z" fill="#000000" fill-opacity="0.03"/>
      <path d="M23.752,125.279 C8.204,112.125 0.504,91.857 0,71.922 C0,32.244 32.166,0.078 71.844,0.078 C92.179,0.323 112.811,8.814 125.937,24.721 C112.553,12.667 95.714,6.685 77.844,6.233 C38.166,6.233 6,38.399 6,78.078 C6.041,96.17 12.356,111.47 23.752,125.279 z" fill="#FFFFFF" fill-opacity="0.2"/>
    </g>
    <path d="M80.665,60.441 C81.002,58.066 80.663,59.035 81.406,57.453 C82.908,54.943 84.941,52.491 87.377,50.084 C89.098,48.384 90.923,46.802 92.749,45.368 C93.852,44.501 94.728,43.864 95.266,43.496 C97.901,41.693 101.522,42.631 102.95,45.487 C103.143,45.872 103.143,45.872 103.912,47.411 C104.875,49.336 104.875,49.336 106.029,51.645 C106.628,52.843 107.227,54.041 107.826,55.239 C109.026,57.638 108.598,56.784 109.108,57.803 C110.409,60.404 109.354,63.567 106.753,64.868 C104.151,66.169 100.988,65.114 99.687,62.513 C99.481,62.102 99.605,62.349 99.317,61.773 C98.414,59.967 97.511,58.161 96.608,56.355 L96.446,56.031 L94.78,57.576 C92.925,59.409 91.433,61.209 90.443,62.863 C88.949,65.358 85.715,66.17 83.219,64.676 C81.367,63.511 81.161,62.418 80.665,60.441 z" fill="#333333"/>
    <path d="M63.391,60.884 C63.057,62.761 62.048,63.93 60.491,64.9 C57.877,66.184 54.717,65.107 53.432,62.492 C52.508,60.612 51.043,58.733 49.174,56.939 L47.787,55.718 L47.466,56.359 C46.902,57.486 47.211,56.87 46.542,58.208 C45.821,59.647 45.103,61.086 44.383,62.525 C43.08,65.13 39.913,66.186 37.307,64.884 C34.702,63.581 33.646,60.413 34.949,57.808 C35.141,57.423 35.141,57.423 35.912,55.881 C36.876,53.954 36.876,53.954 38.032,51.641 C39.188,49.329 39.188,49.329 40.152,47.402 C40.923,45.86 40.923,45.86 41.115,45.475 C42.458,42.789 45.77,41.765 48.395,43.224 C48.974,43.546 49.882,44.103 51.015,44.886 C52.873,46.169 54.729,47.65 56.478,49.329 C59.173,51.916 61.376,54.742 62.899,57.841 C63.509,59.481 63.251,58.486 63.391,60.884 z" fill="#333333"/>
    <path d="M100.662,92.844 C103.153,92.844 105.172,94.863 105.172,97.353 C105.172,111.663 90.064,122.587 72,122.587 C53.936,122.587 38.828,111.663 38.828,97.353 C38.828,94.863 40.847,92.844 43.337,92.844 C43.337,92.844 60,96 72,96 C84,96 100.662,92.844 100.662,92.844 z" fill="#333333"/>
    <path d="M111.567,109.141 C100.299,109.141 91.164,100.007 91.164,88.738 C91.164,77.47 100.299,68.336 111.567,68.336 C122.835,68.336 131.97,77.47 131.97,88.738 C131.97,100.007 122.835,109.141 111.567,109.141 z" fill="url(#Gradient_1)"/>
    <path d="M32.433,109.141 C21.165,109.141 12.03,100.007 12.03,88.738 C12.03,77.47 21.165,68.336 32.433,68.336 C43.701,68.336 52.836,77.47 52.836,88.738 C52.836,100.007 43.701,109.141 32.433,109.141 z" fill="url(#Gradient_2)"/>
    <path d="M71.82,109.855 C79.733,109.881 87.387,111.996 93.552,116.443 C87.227,120.935 79.764,122.407 71.866,122.423 C64.003,122.407 56.475,120.752 50.448,116.347 C56.383,111.85 64.235,110.131 71.82,109.855 z" fill="#F55065"/>
  </g>
</svg>
