<?xml version="1.0" encoding="UTF-8"?>
<!DOCTYPE svg PUBLIC "-//W3C//DTD SVG 1.1//EN" "http://www.w3.org/Graphics/SVG/1.1/DTD/svg11.dtd">
<svg version="1.1" xmlns="http://www.w3.org/2000/svg" xmlns:xlink="http://www.w3.org/1999/xlink" x="0" y="0" width="144" height="144" viewBox="0, 0, 144, 144">
  <g id="Alternate">
    <path d="M72,144 C32.236,144 0,111.764 0,72 C0,32.235 32.236,0 72,0 C111.765,0 144,32.235 144,72 C144,111.764 111.765,144 72,144 z" fill="#DE374E"/>
    <path d="M91.602,40.638 C108.691,40.638 115.225,56.219 111.581,69.79 C106.161,87.573 84.315,108.742 72.126,112.638 L71.874,112.636 C59.687,108.742 36.88,87.438 32.42,69.789 C28.776,56.219 35.31,40.638 52.398,40.638 C69.488,40.638 72.001,55.968 72,55.967 L72,56.02 L72,56.02 L72,55.967 C72.001,55.968 74.514,40.638 91.603,40.638 L91.602,40.638 z" fill="#FFFFFF"/>
  </g>
</svg>
