<?xml version="1.0" encoding="UTF-8"?>
<!DOCTYPE svg PUBLIC "-//W3C//DTD SVG 1.1//EN" "http://www.w3.org/Graphics/SVG/1.1/DTD/svg11.dtd">
<svg version="1.1" xmlns="http://www.w3.org/2000/svg" xmlns:xlink="http://www.w3.org/1999/xlink" x="0" y="0" width="144" height="144" viewBox="0, 0, 144, 144">
  <g id="V2">
    <path d="M72,144 C32.235,144 0,111.765 0,72 C0,32.236 32.235,0 72,0 C111.765,0 144,32.236 144,72 C144,111.765 111.765,144 72,144 z" fill="#F5CA3F"/>
    <g>
      <path d="M119.626,18.643 C135.174,31.797 142.874,52.065 143.378,72 C143.378,111.679 111.212,143.844 71.533,143.844 C51.198,143.599 30.567,135.108 17.441,119.201 C30.825,131.255 47.664,137.237 65.533,137.689 C105.212,137.689 137.378,105.523 137.378,65.844 C137.337,47.752 131.022,32.452 119.626,18.643 z" fill="#000000" fill-opacity="0.03"/>
      <path d="M23.752,125.357 C8.204,112.203 0.504,91.934 0,72 C0,32.321 32.166,0.155 71.844,0.155 C92.179,0.401 112.811,8.891 125.937,24.798 C112.553,12.745 95.714,6.763 77.844,6.311 C38.166,6.311 6,38.477 6,78.156 C6.041,96.248 12.356,111.548 23.752,125.357 z" fill="#FFFFFF" fill-opacity="0.2"/>
    </g>
    <path d="M118.115,80.287 C124.428,86.637 130.743,92.987 137.057,99.337 C139.43,101.357 140.953,104.138 141.826,107.092 C144.118,115.646 139.119,124.459 130.565,126.751 C122.011,129.044 113.141,123.947 110.849,115.393 C110.06,112.379 110.109,109.167 111.128,106.214 C113.457,97.571 115.785,88.929 118.115,80.287 z" fill="#3886C9"/>
    <path d="M93.748,115.281 L93.749,115.282 L93.782,115.316 L93.78,115.314 L93.748,115.281 z" fill="#333333"/>
    <path d="M43.582,79.746 C36.955,79.166 32.28,70.733 33.139,60.91 C33.998,51.087 40.067,43.594 46.694,44.174 C53.321,44.754 57.997,53.187 57.138,63.01 C56.278,72.833 50.209,80.326 43.582,79.746 z" fill="#333333"/>
    <path d="M102.404,79.339 C108.747,77.39 112.403,67.987 110.569,58.338 C108.735,48.688 102.107,42.445 95.764,44.394 C89.421,46.343 85.765,55.746 87.599,65.395 C89.432,75.045 96.061,81.288 102.404,79.339 z" fill="#333333"/>
    <path d="M72.2,104.078 C90.925,103.52 100.834,113.622 100.834,113.622 C100.834,113.622 104.455,116.552 100.854,119.609 C97.185,122.582 93.523,119.065 93.523,119.065 C93.523,119.065 87.009,112.172 72.701,112.027 C58.393,111.882 50.188,119.353 50.188,119.353 C50.188,119.353 46.13,122.669 42.858,119.505 C39.768,116.518 43.094,113.797 43.094,113.797 C43.094,113.797 52.689,104.196 72.2,104.078 z" fill="#333333"/>
  </g>
</svg>
