<?xml version="1.0" encoding="UTF-8"?>
<!DOCTYPE svg PUBLIC "-//W3C//DTD SVG 1.1//EN" "http://www.w3.org/Graphics/SVG/1.1/DTD/svg11.dtd">
<svg version="1.1" xmlns="http://www.w3.org/2000/svg" xmlns:xlink="http://www.w3.org/1999/xlink" x="0" y="0" width="144" height="144" viewBox="0, 0, 144, 144">
  <g id="Alternate">
    <path d="M72.259,24 L73.05,24.003 C75.368,24.948 74.474,24.358 75.887,25.512 C77.235,26.861 78.584,28.21 79.932,29.558 C81.439,31.065 82.947,32.572 84.454,34.079 C90.075,39.7 95.696,45.321 101.317,50.943 C105.084,54.71 105.084,54.71 106.026,55.652 C109.489,59.114 107.036,65.035 102.139,65.035 L87.576,65.035 L87.576,114.503 C87.577,117.539 85.116,120 82.08,120 L61.92,120 C58.885,120 56.424,117.539 56.424,114.503 L56.424,65.035 L41.861,65.035 C36.964,65.035 34.511,59.114 37.974,55.652 C38.916,54.71 38.916,54.71 42.683,50.943 C45.45,48.176 44.164,49.462 46.541,47.085 C52.162,41.464 57.783,35.843 63.404,30.222 C67.172,26.454 67.172,26.454 68.114,25.512 C69.389,24.235 70.544,24.059 72.259,24 z" fill="#FFFFFF"/>
  </g>
</svg>
