<?xml version="1.0" encoding="UTF-8"?>
<!DOCTYPE svg PUBLIC "-//W3C//DTD SVG 1.1//EN" "http://www.w3.org/Graphics/SVG/1.1/DTD/svg11.dtd">
<svg version="1.1" xmlns="http://www.w3.org/2000/svg" xmlns:xlink="http://www.w3.org/1999/xlink" x="0" y="0" width="72" height="72" viewBox="0, 0, 72, 72">
  <g id="all/Design.png">
    <path d="M66,0 C69.991,0.353 71.273,2.399 72,5.999 L72,66.001 C71.646,69.992 69.6,71.273 66.002,72 L5.999,72 C2.007,71.646 0.726,69.599 0,66 L0,6 C0,2.686 2.686,0 6,0 L66,0 z M65.782,5 L6,5 C5.448,5 5,5.448 5,6 L5,65.504 C5.182,66.495 5.177,66.909 6.216,67 L65.505,67 C66.495,66.818 66.909,66.822 67,65.784 L67,6.494 C66.818,5.503 66.822,5.091 65.782,5 z M12.484,51 C10.827,51 9.484,52.344 9.484,54 L9.484,59.747 C9.484,61.404 10.827,62.747 12.484,62.747 L59.516,62.747 C61.173,62.747 62.516,61.404 62.516,59.747 L62.516,54 C62.516,52.344 61.173,51 59.516,51 L12.484,51 z" fill="#333344" id="buttons/minimize.svg"/>
  </g>
</svg>
