<?xml version="1.0" encoding="UTF-8"?>
<!DOCTYPE svg PUBLIC "-//W3C//DTD SVG 1.1//EN" "http://www.w3.org/Graphics/SVG/1.1/DTD/svg11.dtd">
<svg version="1.1" xmlns="http://www.w3.org/2000/svg" xmlns:xlink="http://www.w3.org/1999/xlink" x="0" y="0" width="72.559" height="72.559" viewBox="0, 0, 72.559, 72.559">
  <g id="all/Design.png">
    <path d="M8.277,1.472 C10.24,-0.49 13.422,-0.49 15.384,1.472 L36.279,22.368 L57.175,1.472 C59.138,-0.49 62.319,-0.49 64.281,1.472 L71.087,8.278 C73.05,10.24 73.05,13.422 71.088,15.384 L50.191,36.28 L71.087,57.175 C73.05,59.138 73.05,62.319 71.088,64.281 L64.28,71.088 C62.319,73.05 59.138,73.05 57.175,71.088 L36.278,50.193 L15.383,71.088 C13.422,73.05 10.24,73.05 8.278,71.088 L1.471,64.282 C-0.49,62.319 -0.49,59.138 1.472,57.175 L22.366,36.28 L1.47,15.385 C-0.49,13.422 -0.49,10.24 1.472,8.278 L8.277,1.472 z" fill="#333344" id="buttons/close.svg"/>
  </g>
</svg>
