<?xml version="1.0" encoding="UTF-8"?>
<!DOCTYPE svg PUBLIC "-//W3C//DTD SVG 1.1//EN" "http://www.w3.org/Graphics/SVG/1.1/DTD/svg11.dtd">
<svg version="1.1" xmlns="http://www.w3.org/2000/svg" xmlns:xlink="http://www.w3.org/1999/xlink" x="0" y="0" width="72" height="72" viewBox="0, 0, 72, 72">
  <g id="Design">
    <path d="M36,0 C55.882,0 72,16.118 72,36 C72,55.882 55.882,72 36,72 C16.118,72 0,55.882 0,36 C0,16.118 16.118,0 36,0 z M35.992,26.735 L28.457,26.735 L28.457,29.079 C28.457,31.139 30.127,32.809 32.187,32.809 L32.262,32.809 L32.262,52.54 L30.544,52.54 C28.484,52.541 26.814,54.21 26.814,56.271 C26.814,58.33 28.484,60 30.544,60 L41.456,60 C43.516,60 45.186,58.33 45.186,56.27 C45.186,54.21 43.516,52.541 41.456,52.54 L39.722,52.54 L39.722,30.466 L39.722,30.465 C39.722,28.405 38.052,26.735 35.992,26.735 z M36,12 C33.011,12 30.588,14.423 30.588,17.412 C30.588,20.401 33.011,22.824 36,22.824 C38.989,22.824 41.412,20.401 41.412,17.412 C41.412,14.423 38.989,12 36,12 z" fill="#FFFFFF" id="path"/>
  </g>
</svg>
