<?xml version="1.0" encoding="UTF-8"?>
<!DOCTYPE svg PUBLIC "-//W3C//DTD SVG 1.1//EN" "http://www.w3.org/Graphics/SVG/1.1/DTD/svg11.dtd">
<svg version="1.1" xmlns="http://www.w3.org/2000/svg" xmlns:xlink="http://www.w3.org/1999/xlink" x="0" y="0" width="72" height="72" viewBox="0, 0, 72, 72">
  <g id="Design">
    <path d="M36,0 C55.882,0 72,16.118 72,36 C72,55.882 55.882,72 36,72 C16.118,72 0,55.882 0,36 C0,16.118 16.118,0 36,0 z M36,12.416 C33.1,12.416 30.75,14.767 30.75,17.666 L30.75,31.062 L17.354,31.062 C14.455,31.062 12.104,33.412 12.104,36.312 C12.104,39.211 14.455,41.562 17.354,41.562 L30.75,41.562 L30.75,54.957 C30.75,57.857 33.1,60.207 36,60.207 C38.899,60.207 41.25,57.857 41.25,54.957 L41.25,41.562 L54.645,41.562 C57.545,41.562 59.895,39.211 59.895,36.312 C59.895,33.412 57.545,31.062 54.645,31.062 L41.25,31.062 L41.25,17.666 C41.25,14.767 38.899,12.416 36,12.416 z" fill="#FFFFFF" id="path"/>
  </g>
</svg>
