<?xml version="1.0" encoding="UTF-8"?>
<!DOCTYPE svg PUBLIC "-//W3C//DTD SVG 1.1//EN" "http://www.w3.org/Graphics/SVG/1.1/DTD/svg11.dtd">
<svg version="1.1" xmlns="http://www.w3.org/2000/svg" xmlns:xlink="http://www.w3.org/1999/xlink" x="0" y="0" width="72" height="72" viewBox="0, 0, 72, 72">
  <g id="Design">
    <path d="M36,0 C55.882,0 72,16.118 72,36 C72,55.882 55.882,72 36,72 C16.118,72 0,55.882 0,36 C0,16.118 16.118,0 36,0 z M49.261,21.92 C47.697,21.94 46.996,21.87 45.78,23.033 C44.28,24.572 44.311,27.036 45.85,28.536 C48.656,31.272 49.875,34.138 49.9,38.339 C49.9,45.993 43.677,52.216 36,52.216 C28.323,52.216 22.1,45.993 22.1,38.316 C22.119,34.674 23.482,31.571 26.356,28.423 C27.805,26.836 27.694,24.374 26.106,22.925 C24.519,21.475 22.057,21.587 20.608,23.175 C16.501,27.672 14.345,32.58 14.316,38.297 C14.317,50.292 24.025,60 36,60 C47.975,60 57.683,50.292 57.683,38.316 C57.647,32.01 55.581,27.152 51.283,22.963 C50.273,22.159 50.911,22.568 49.261,21.92 z M36,12 C33.748,12 31.923,13.825 31.923,16.077 L31.923,33.868 C31.923,36.12 33.748,37.946 36,37.946 C38.252,37.946 40.077,36.12 40.077,33.868 L40.077,16.077 C40.077,13.825 38.252,12 36,12 z" fill="#FFFFFF" id="shape"/>
  </g>
</svg>
