<?xml version="1.0" encoding="UTF-8"?>
<!DOCTYPE svg PUBLIC "-//W3C//DTD SVG 1.1//EN" "http://www.w3.org/Graphics/SVG/1.1/DTD/svg11.dtd">
<svg version="1.1" xmlns="http://www.w3.org/2000/svg" xmlns:xlink="http://www.w3.org/1999/xlink" x="0" y="0" width="144" height="144" viewBox="0, 0, 144, 144">
  <g id="Alternate">
    <path d="M72,144 C32.236,144 0,111.764 0,72 C0,32.235 32.236,0 72,0 C111.765,0 144,32.235 144,72 C144,111.764 111.765,144 72,144 z" fill="#3886C9"/>
    <path d="M81.618,121.089 C83.19,121.025 82.545,121.093 83.559,120.959 C83.866,120.907 84.069,120.851 84.143,120.821 C84.819,120.613 85.792,120.089 86.759,119.121 C88.12,117.76 89.022,115.888 89.253,113.447 C89.522,107.438 88.844,101.154 86.525,95.566 L105.471,95.566 C105.476,95.566 105.476,95.566 105.49,95.566 C106.44,95.579 107.725,95.384 109.003,94.781 C111.227,93.73 112.584,91.75 112.599,88.696 C112.614,85.625 111.205,83.6 108.88,82.478 L108.072,82.163 L108.89,81.858 C111.218,80.771 112.631,78.698 112.631,75.48 C112.631,72.215 110.779,70.215 107.772,69.271 L106.886,69.041 C109.41,68.129 110.302,65.75 110.461,63.303 C110.461,60.117 108.901,58.016 106.344,56.846 C104.783,56.268 105.459,56.45 104.346,56.2 C106.959,55.372 108.132,53.166 108.324,50.608 C108.324,47.573 107.006,45.5 104.831,44.266 C104.078,43.838 103.276,43.543 102.473,43.357 C101.99,43.244 101.609,43.192 101.345,43.176 C91.362,43.27 81.378,43.163 71.395,43.177 C71.359,43.175 71.296,43.171 71.206,43.168 C70.488,43.14 69.569,43.167 68.524,43.292 C66.977,43.476 65.451,43.842 64.018,44.435 C61.325,45.549 59.212,47.358 57.923,49.984 L57.868,50.096 L57.868,50.222 L58.069,89.099 L58.07,89.281 L58.182,89.425 C58.28,89.55 58.454,89.766 58.687,90.043 C59.074,90.503 59.482,90.964 59.894,91.395 C60.181,91.695 60.46,91.971 60.728,92.217 C61.294,92.71 61.021,92.488 61.545,92.89 C62.066,93.467 62.587,94.044 63.108,94.62 C64.066,95.68 65.023,96.74 65.981,97.8 C67.362,99.328 68.743,100.857 70.124,102.385 C71.399,103.797 71.399,103.797 71.74,104.173 C71.885,104.315 72.149,104.598 72.491,105.011 C73.065,105.705 73.641,106.504 74.177,107.395 C75.065,108.87 75.757,110.448 76.176,112.1 C76.362,112.859 76.362,112.859 76.92,115.135 C77.479,117.411 77.479,117.411 77.654,118.107 C77.7,118.489 77.855,119.027 78.193,119.571 C78.738,120.449 79.596,121.009 80.782,121.066 L81.618,121.089 z M47.482,93.375 L37.595,93.375 C34.157,93.375 31.37,90.588 31.37,87.15 L31.37,51.625 C31.37,48.187 34.157,45.4 37.595,45.4 L53.707,45.4 L53.707,87.15 C53.707,90.588 50.92,93.375 47.482,93.375 z" fill="#FFFFFF"/>
  </g>
</svg>
