<?xml version="1.0" encoding="UTF-8"?>
<!DOCTYPE svg PUBLIC "-//W3C//DTD SVG 1.1//EN" "http://www.w3.org/Graphics/SVG/1.1/DTD/svg11.dtd">
<svg version="1.1" xmlns="http://www.w3.org/2000/svg" xmlns:xlink="http://www.w3.org/1999/xlink" x="0" y="0" width="144" height="144" viewBox="0, 0, 144, 144">
  <defs>
    <radialGradient id="Gradient_1" gradientUnits="userSpaceOnUse" cx="903.595" cy="160.738" r="20.403" gradientTransform="matrix(1, 0, 0, 1, -792, -72)">
      <stop offset="0" stop-color="#FF0000" stop-opacity="0.1"/>
      <stop offset="1" stop-color="#FF0000" stop-opacity="0"/>
    </radialGradient>
    <radialGradient id="Gradient_2" gradientUnits="userSpaceOnUse" cx="824.461" cy="160.738" r="20.403" gradientTransform="matrix(1, 0, 0, 1, -792, -72)">
      <stop offset="0" stop-color="#FF0000" stop-opacity="0.1"/>
      <stop offset="1" stop-color="#FF0000" stop-opacity="0"/>
    </radialGradient>
  </defs>
  <g id="Original">
    <path d="M72,144 C32.235,144 0,111.764 0,72 C0,32.235 32.235,0 72,0 C111.765,0 144,32.235 144,72 C144,111.764 111.765,144 72,144 z" fill="#F5CA3F"/>
    <path d="M109.665,60.441 C109.328,58.066 109.667,59.035 108.924,57.453 C107.422,54.943 105.389,52.491 102.953,50.084 C101.232,48.384 100.269,47.548 98.444,46.114 C94.434,43.285 88.03,44.156 86.418,47.411 C85.456,49.336 85.456,49.336 84.301,51.645 C83.702,52.843 83.103,54.041 82.504,55.239 C81.304,57.638 81.732,56.784 81.222,57.803 C79.921,60.404 80.976,63.567 83.577,64.868 C86.179,66.169 89.342,65.114 90.643,62.513 C90.849,62.102 90.725,62.349 91.013,61.773 C91.916,59.967 92.819,58.161 93.722,56.355 L93.884,56.031 L95.55,57.576 C97.406,59.409 98.897,61.209 99.887,62.863 C101.381,65.358 104.615,66.17 107.111,64.676 C108.963,63.511 109.169,62.418 109.665,60.441 z" fill="#333333"/>
    <path d="M111.595,109.141 C100.327,109.141 91.192,100.007 91.192,88.738 C91.192,77.47 100.327,68.336 111.595,68.336 C122.864,68.336 131.998,77.47 131.998,88.738 C131.998,100.007 122.864,109.141 111.595,109.141 z" fill="url(#Gradient_1)"/>
    <path d="M32.461,109.141 C21.193,109.141 12.058,100.007 12.058,88.738 C12.058,77.47 21.193,68.336 32.461,68.336 C43.729,68.336 52.864,77.47 52.864,88.738 C52.864,100.007 43.729,109.141 32.461,109.141 z" fill="url(#Gradient_2)"/>
    <path d="M93.047,99.141 C94.737,98.955 96.358,100.624 96.358,102.453 C96.358,112.96 85.264,120.981 72,120.981 C58.736,120.981 47.642,112.96 47.642,102.453 C47.642,100.624 49.072,99.061 50.953,99.141 C52.835,99.221 59.009,104.442 72.464,104.454 C86.608,104.442 91.356,99.328 93.047,99.141 z" fill="#333333"/>
    <path d="M34.463,60.441 C34.8,58.066 34.461,59.035 35.203,57.453 C36.706,54.943 38.739,52.491 41.175,50.084 C42.895,48.384 43.859,47.548 45.684,46.114 C49.694,43.285 56.098,44.156 57.71,47.411 C58.672,49.336 58.672,49.336 59.827,51.645 C60.426,52.843 61.025,54.041 61.623,55.239 C62.823,57.638 62.396,56.784 62.905,57.803 C64.206,60.404 63.152,63.567 60.55,64.868 C57.949,66.169 54.786,65.114 53.485,62.513 C53.279,62.102 53.403,62.349 53.115,61.773 C52.212,59.967 51.309,58.161 50.406,56.355 L50.243,56.031 L48.577,57.576 C46.722,59.409 45.231,61.209 44.241,62.863 C42.747,65.358 39.513,66.17 37.017,64.676 C35.165,63.511 34.959,62.418 34.463,60.441 z" fill="#333333"/>
  </g>
</svg>
