<?xml version="1.0" encoding="UTF-8"?>
<!DOCTYPE svg PUBLIC "-//W3C//DTD SVG 1.1//EN" "http://www.w3.org/Graphics/SVG/1.1/DTD/svg11.dtd">
<svg version="1.1" xmlns="http://www.w3.org/2000/svg" xmlns:xlink="http://www.w3.org/1999/xlink" x="0" y="0" width="144" height="144" viewBox="0, 0, 144, 144">
  <g id="Original">
    <path d="M72,144 C32.236,144 0,111.765 0,72 C0,32.235 32.236,0 72,0 C111.765,0 144,32.235 144,72 C144,111.765 111.765,144 72,144 z" fill="#F5CA3F"/>
    <path d="M118.115,80.287 C124.429,86.637 130.743,92.987 137.057,99.337 C139.43,101.357 140.953,104.138 141.826,107.092 C144.118,115.646 139.119,124.459 130.565,126.751 C122.011,129.044 113.141,123.947 110.849,115.393 C110.06,112.379 110.109,109.167 111.128,106.214 C113.457,97.571 115.785,88.929 118.115,80.287 z" fill="#3886C9"/>
    <path d="M93.748,115.281 L93.749,115.282 L93.782,115.316 L93.78,115.314 L93.748,115.281 z" fill="#333333"/>
    <path d="M44.495,79.867 C36.202,79.813 34.701,71.808 35.57,61.867 C36.44,51.925 40.548,46.509 47.645,43.867 C54.742,41.224 57.44,51.925 56.57,61.867 C55.701,71.808 52.789,79.92 44.495,79.867 z" fill="#333333"/>
    <path d="M99.675,79.867 C107.969,79.813 109.47,71.808 108.6,61.867 C107.731,51.925 103.675,45.403 96.526,43.867 C89.377,42.33 86.731,51.925 87.6,61.867 C88.47,71.808 91.382,79.92 99.675,79.867 z" fill="#333333"/>
    <path d="M90,107.281 C92.816,108.338 94,109.072 94,111.281 C94,113.49 92.209,115.281 90,115.281 C90,115.281 80.022,112.69 72.757,112.694 C65.493,112.698 54,115.281 54,115.281 C51.791,115.281 50,113.49 50,111.281 C50,109.072 51.621,107.99 54,107.281 C54,107.281 62.291,104.694 72.634,104.694 C82.977,104.694 90,107.281 90,107.281 z" fill="#333333"/>
  </g>
</svg>
