<?xml version="1.0" encoding="UTF-8"?>
<!DOCTYPE svg PUBLIC "-//W3C//DTD SVG 1.1//EN" "http://www.w3.org/Graphics/SVG/1.1/DTD/svg11.dtd">
<svg version="1.1" xmlns="http://www.w3.org/2000/svg" xmlns:xlink="http://www.w3.org/1999/xlink" x="0" y="0" width="144" height="144" viewBox="0, 0, 144, 144">
  <g id="Alternate">
    <path d="M72,144 C32.235,144 0,111.764 0,72 C0,32.235 32.235,0 72,0 C111.765,0 144,32.235 144,72 C144,111.764 111.765,144 72,144 z" fill="#3886C9"/>
    <path d="M81.617,28.034 C83.19,28.099 82.545,28.03 83.559,28.164 C83.865,28.216 84.069,28.272 84.142,28.303 C84.818,28.51 85.792,29.034 86.759,30.002 C88.119,31.364 89.021,33.236 89.253,35.677 C89.521,41.685 88.844,47.97 86.524,53.558 L105.471,53.558 C105.476,53.558 105.476,53.558 105.489,53.557 C106.439,53.545 107.724,53.739 109.003,54.343 C111.227,55.394 112.583,57.373 112.598,60.428 C112.614,63.498 111.204,65.524 108.88,66.645 L108.072,66.96 L108.89,67.266 C111.218,68.353 112.631,70.426 112.631,73.644 C112.631,76.909 110.778,78.909 107.771,79.853 L106.886,80.082 C109.41,80.995 110.301,83.373 110.461,85.821 C110.461,89.006 108.901,91.108 106.344,92.277 C104.782,92.855 105.458,92.674 104.346,92.923 C106.958,93.752 108.132,95.957 108.323,98.516 C108.323,101.55 107.005,103.623 104.831,104.858 C104.078,105.286 103.275,105.58 102.473,105.767 C101.989,105.879 101.609,105.932 101.345,105.948 C91.361,105.854 81.378,105.961 71.394,105.946 C71.359,105.949 71.295,105.952 71.205,105.956 C70.487,105.984 69.569,105.956 68.523,105.832 C66.977,105.648 65.451,105.281 64.018,104.688 C61.325,103.574 59.212,101.765 57.923,99.14 L57.867,99.027 L57.868,98.901 L58.068,60.025 L58.069,59.842 L58.182,59.698 C58.28,59.573 58.454,59.357 58.686,59.081 C59.073,58.621 59.481,58.16 59.893,57.729 C60.18,57.428 60.459,57.153 60.728,56.907 C61.294,56.413 61.02,56.635 61.544,56.234 C62.065,55.657 62.586,55.08 63.107,54.503 C64.065,53.443 65.023,52.383 65.981,51.323 C67.361,49.795 68.742,48.267 70.123,46.739 C71.399,45.327 71.399,45.327 71.74,44.951 C71.885,44.809 72.148,44.525 72.49,44.112 C73.065,43.419 73.64,42.62 74.177,41.728 C75.065,40.254 75.756,38.676 76.175,37.023 C76.361,36.264 76.361,36.264 76.92,33.988 C77.479,31.712 77.479,31.712 77.653,31.016 C77.7,30.634 77.854,30.097 78.193,29.552 C78.738,28.674 79.595,28.114 80.781,28.058 L81.617,28.034 z M47.481,55.748 L37.595,55.748 C34.157,55.748 31.37,58.535 31.37,61.973 L31.37,97.499 C31.37,100.937 34.157,103.724 37.595,103.724 L53.707,103.724 L53.707,61.973 C53.707,58.535 50.92,55.748 47.481,55.748 z" fill="#FFFFFF"/>
  </g>
</svg>
