<?xml version="1.0" encoding="UTF-8"?>
<!DOCTYPE svg PUBLIC "-//W3C//DTD SVG 1.1//EN" "http://www.w3.org/Graphics/SVG/1.1/DTD/svg11.dtd">
<svg version="1.1" xmlns="http://www.w3.org/2000/svg" xmlns:xlink="http://www.w3.org/1999/xlink" x="0" y="0" width="144" height="144" viewBox="0, 0, 144, 144">
  <g id="Original">
    <path d="M72,144 C32.236,144 0,111.765 0,72 C0,32.236 32.236,0 72,0 C111.764,0 144,32.236 144,72 C144,111.765 111.764,144 72,144 z" fill="#F5CA3F"/>
    <path d="M99.144,69.26 C92.625,70.138 86.31,63.199 85.038,53.761 C83.767,44.322 88.021,35.959 94.54,35.081 C101.059,34.203 107.374,41.142 108.646,50.58 C109.917,60.018 105.663,68.381 99.144,69.26 z" fill="#333333"/>
    <path d="M44.641,69.238 C38.032,68.288 33.76,59.958 35.1,50.631 C36.44,41.304 42.884,34.512 49.492,35.462 C56.101,36.411 60.372,44.742 59.033,54.069 C57.693,63.396 51.249,70.187 44.641,69.238 z" fill="#333333"/>
    <path d="M71.789,125.458 C62.417,125.264 51.339,117.161 51.3,105.304 C51.3,94.173 62.981,89.912 71.789,89.912 C80.727,89.912 92.278,94.173 92.278,105.304 C92.335,117.161 81.859,125.449 71.789,125.458 z" fill="#333333"/>
    <path d="M72.336,118.072 C76.887,118.193 81.678,118.378 84.865,120.87 C81.629,123.702 76.731,125.205 71.778,125.458 C66.357,125.25 63.246,123.444 59.324,121.012 C62.638,118.416 67.606,118.259 72.336,118.072 z" fill="#F55065"/>
    <path d="M71.789,89.912 C77.493,90.038 83.694,91.427 87.622,95.176 C82.764,97.258 77.21,97.782 71.853,97.907 C66.606,97.758 60.731,97.323 56.023,95.147 C59.974,91.417 66.097,90.083 71.789,89.912 z" fill="#FFFFFF"/>
  </g>
</svg>
