<?xml version="1.0" encoding="UTF-8"?>
<!DOCTYPE svg PUBLIC "-//W3C//DTD SVG 1.1//EN" "http://www.w3.org/Graphics/SVG/1.1/DTD/svg11.dtd">
<svg version="1.1" xmlns="http://www.w3.org/2000/svg" xmlns:xlink="http://www.w3.org/1999/xlink" x="0" y="0" width="144" height="144" viewBox="0, 0, 144, 144">
  <g id="V2">
    <path d="M72,144 C32.235,144 0,111.764 0,72 C0,32.236 32.235,0 72,0 C111.765,0 144,32.236 144,72 C144,111.764 111.765,144 72,144 z" fill="#F5CA3F"/>
    <g>
      <path d="M119.626,18.643 C135.174,31.797 142.874,52.065 143.378,72 C143.378,111.679 111.212,143.844 71.533,143.844 C51.198,143.599 30.567,135.108 17.441,119.202 C30.825,131.255 47.664,137.237 65.533,137.689 C105.212,137.689 137.378,105.523 137.378,65.844 C137.337,47.752 131.022,32.452 119.626,18.643 z" fill="#000000" fill-opacity="0.03"/>
      <path d="M23.752,125.357 C8.204,112.203 0.504,91.934 0,72 C0,32.321 32.166,0.155 71.844,0.155 C92.179,0.401 112.811,8.891 125.937,24.798 C112.553,12.745 95.714,6.763 77.844,6.311 C38.166,6.311 6,38.477 6,78.156 C6.041,96.248 12.356,111.548 23.752,125.357 z" fill="#FFFFFF" fill-opacity="0.2"/>
    </g>
    <path d="M99.144,69.26 C92.625,70.138 86.31,63.199 85.038,53.761 C83.767,44.322 88.021,35.959 94.54,35.081 C101.059,34.203 107.374,41.142 108.646,50.58 C109.917,60.018 105.663,68.381 99.144,69.26 z" fill="#333333"/>
    <path d="M44.641,69.238 C38.032,68.288 33.76,59.958 35.1,50.631 C36.44,41.304 42.884,34.512 49.492,35.462 C56.101,36.411 60.372,44.742 59.033,54.069 C57.693,63.396 51.249,70.187 44.641,69.238 z" fill="#333333"/>
    <path d="M71.789,132 C60.692,131.771 47.575,122.176 47.529,108.137 C47.529,94.958 61.36,89.912 71.789,89.912 C82.372,89.912 96.049,94.958 96.049,108.137 C96.117,122.176 83.713,131.99 71.789,132 z" fill="#333333"/>
    <path d="M72.437,123.255 C77.825,123.398 83.351,123.533 87.125,126.484 C83.294,129.837 77.98,132 71.776,132 C65.352,132 61.772,129.565 57.127,126.685 C61.052,123.611 66.836,123.476 72.437,123.255 z" fill="#F55065"/>
    <path d="M71.789,89.912 C78.388,89.912 85.999,91.673 90.65,96.112 C84.898,98.577 78.208,99.23 71.865,99.378 C65.652,99.202 58.631,98.625 53.056,96.05 C57.734,91.633 64.726,89.912 71.789,89.912 z" fill="#FFFFFF"/>
  </g>
</svg>
